# xmcd CD database file
#
# Track frame offsets:
#	150
#	25807
#	52595
#
# Disc length: 962 seconds
#
# Revision: 1
# Processed by: cddbd v1.5.1PL2 Copyright (c) Steve Scherf et al.
# Submitted via: CDex 1.60beta1-cs1
#
DISCID=1503c003
DTITLE=フジファブリック - 茜色の夕日
DYEAR=2005
DGENRE=Rock
TTITLE0=茜色の夕日
TTITLE1=蜃気楼
TTITLE2=ムーンライト
EXTD=YEAR: 2005
EXTT0=
EXTT1=
EXTT2=
PLAYORDER=
